<mxfile host="app.diagrams.net" modified="2024-01-17T05:26:29.306Z" agent="Mozilla/5.0 (Windows NT 10.0; Win64; x64) AppleWebKit/537.36 (KHTML, like Gecko) Chrome/120.0.0.0 Safari/537.36" version="22.1.18" etag="K9UBnXzHeb3gjG-2JT6f" type="github">
  <diagram name="Page-1" id="coCLK98bln57UXECSjdP">
    <mxGraphModel>
      <root>
        <mxCell id="0" />
        <mxCell id="1" parent="0" />
      </root>
    </mxGraphModel>
  </diagram>
</mxfile>
